<?xml version="1.0" encoding="UTF-8" standalone="no"?>
<!DOCTYPE svg PUBLIC "-//W3C//DTD SVG 1.1//EN" "http://www.w3.org/Graphics/SVG/1.1/DTD/svg11.dtd">
<svg width="100%" height="100%" viewBox="0 0 2344 756" version="1.1" xmlns="http://www.w3.org/2000/svg" xmlns:xlink="http://www.w3.org/1999/xlink" xml:space="preserve" xmlns:serif="http://www.serif.com/" style="fill-rule:evenodd;clip-rule:evenodd;stroke-linejoin:round;stroke-miterlimit:2;">
    <g transform="matrix(1,0,0,1,-9.385794,-20.008194)">
        <g transform="matrix(1.027476,0,0,1.027476,-65.994579,-1918.183433)">
            <g transform="matrix(12.359124,0,0,12.359124,-9784.847034,-23188.537672)">
                <g transform="matrix(50,0,0,50,984.121461,2076.939661)">
                </g>
                <text x="795.571px" y="2076.94px" style="font-family:'FONTSPRINGDEMO-VanitasRegular', 'FONTSPRING DEMO - Vanitas';font-weight:700;font-size:50px;fill:rgb(43,35,35);">Gasparro</text>
            </g>
            <g transform="matrix(5.33869,0,0,5.33869,-3409.842557,-9017.991001)">
                <g transform="matrix(50,0,0,50,995.571461,2076.939661)">
                </g>
                <text x="795.571px" y="2076.94px" style="font-family:'FONTSPRINGDEMO-VanitasRegular', 'FONTSPRING DEMO - Vanitas';font-weight:700;font-size:50px;fill:rgb(43,35,35);">fotografia</text>
            </g>
            <g transform="matrix(0.979318,0,0,1,80.958211,1064.669285)">
                <path d="M2320.977,1088.299C2320.977,1092.196 2317.746,1095.36 2313.766,1095.36L459.112,1095.36C455.132,1095.36 451.901,1092.196 451.901,1088.299C451.901,1084.401 455.132,1081.237 459.112,1081.237L2313.766,1081.237C2317.746,1081.237 2320.977,1084.401 2320.977,1088.299Z" style="fill:rgb(43,35,35);"/>
            </g>
        </g>
    </g>
</svg>
