
<svg version="1.0" xmlns="http://www.w3.org/2000/svg"
 width="695.000000pt" height="713.000000pt" viewBox="0 0 695.000000 713.000000"
 preserveAspectRatio="xMidYMid meet" >
<g transform="translate(0.000000,713.000000) scale(0.100000,-0.100000)"
fill="#27443F" stroke="none">
<path d="M6682 6578 c-30 -618 -34 -1113 -28 -3318 3 -1224 9 -2381 12 -2572
l7 -348 -1964 0 c-2594 -1 -3602 -12 -4359 -50 -226 -12 -260 -15 -260 -28 0
-13 429 -31 1035 -44 710 -15 5583 3 5628 21 l27 11 0 1962 c-1 1978 -11 3389
-30 3878 -12 342 -30 689 -36 718 -13 62 -21 -1 -32 -230z"/>
<path d="M6407 5763 c-25 -465 -29 -983 -23 -3004 l6 -2126 -1292 -6 c-710 -4
-1609 -7 -1997 -7 -889 0 -1535 -16 -1956 -47 -142 -10 -72 -20 230 -33 627
-27 5069 -20 5097 8 11 11 12 351 10 1840 -3 1951 -13 2799 -37 3192 -8 135
-15 257 -15 273 0 15 -4 27 -9 27 -4 0 -11 -53 -14 -117z"/>
<path d="M5804 3122 c-203 -70 -322 -316 -256 -529 37 -117 94 -183 254 -292
173 -117 231 -197 231 -318 0 -43 -7 -75 -23 -107 -79 -165 -312 -198 -401
-58 -40 63 -46 118 -20 171 26 50 9 56 -34 11 -23 -24 -30 -41 -33 -89 -8
-118 61 -211 190 -254 15 -5 14 -12 -12 -64 -38 -74 -53 -176 -39 -263 5 -35
14 -71 19 -81 14 -26 12 -31 -8 -20 -11 6 -47 15 -82 20 -87 14 -189 -1 -263
-39 -52 -26 -59 -27 -64 -12 -43 129 -136 198 -254 190 -48 -3 -65 -10 -89
-33 -45 -43 -39 -60 11 -34 53 26 108 20 171 -20 140 -89 107 -322 -58 -401
-32 -16 -64 -23 -107 -23 -121 0 -201 58 -318 231 -80 116 -127 168 -191 208
-144 91 -345 83 -485 -19 -93 -69 -163 -189 -163 -282 0 -85 49 -169 120 -205
40 -21 130 -18 169 5 33 20 41 43 11 37 -8 -2 -44 -5 -80 -5 -73 -2 -117 17
-153 66 -31 41 -35 140 -9 201 29 64 114 150 181 183 50 25 67 28 161 28 94 0
111 -3 160 -27 87 -43 133 -90 225 -228 98 -147 150 -199 242 -242 119 -56
257 -38 351 47 61 55 102 130 109 200 l6 55 63 31 c52 26 79 32 151 36 51 3
106 1 130 -6 135 -37 219 -199 161 -311 -44 -86 -128 -114 -188 -64 -36 31
-55 22 -44 -21 17 -68 136 -86 209 -31 61 47 89 99 93 176 3 53 0 78 -17 115
-12 26 -21 49 -21 51 0 1 21 -6 46 -18 36 -15 62 -19 114 -16 77 4 129 32 176
93 55 73 37 192 -31 209 -43 11 -52 -8 -21 -44 50 -60 22 -144 -64 -188 -112
-58 -274 26 -311 161 -7 24 -9 79 -6 130 4 72 10 99 36 151 l31 63 55 6 c70 7
145 48 200 109 85 94 103 232 47 351 -43 92 -95 144 -242 242 -138 92 -185
138 -228 225 -24 49 -27 66 -27 160 0 94 3 111 28 161 33 67 119 152 183 181
61 26 160 22 201 -9 49 -36 68 -80 66 -153 0 -36 -3 -72 -5 -80 -6 -30 17 -22
37 11 23 39 26 129 5 169 -52 102 -174 144 -296 102z"/>
</g>
</svg>
