<svg width="99" height="99" viewBox="0 0 99 99" fill="none" xmlns="http://www.w3.org/2000/svg">
<rect x="2" y="2" width="94.6667" height="94.6667" rx="47.3333" stroke="#27443F" stroke-width="4"/>
<g clip-path="url(#clip0_2334_135)">
<path d="M74.6667 40.0003C74.5414 40.0003 74.4241 40.031 74.3014 40.0377C72.4083 34.9412 69.0017 30.5456 64.5388 27.4407C60.0759 24.3357 54.7701 22.67 49.3334 22.667C48.2725 22.667 47.2551 23.0884 46.505 23.8386C45.7548 24.5887 45.3334 25.6061 45.3334 26.667C45.3334 27.7279 45.7548 28.7453 46.505 29.4954C47.2551 30.2456 48.2725 30.667 49.3334 30.667C50.0406 30.667 50.7189 30.386 51.219 29.8859C51.7191 29.3858 52 28.7076 52 28.0003C52 27.6467 52.1405 27.3076 52.3906 27.0575C52.6406 26.8075 52.9798 26.667 53.3334 26.667C53.687 26.667 54.0261 26.8075 54.2762 27.0575C54.5262 27.3076 54.6667 27.6467 54.6667 28.0003C54.6667 29.4148 54.1048 30.7714 53.1046 31.7716C52.1044 32.7718 50.7479 33.3337 49.3334 33.3337C47.5659 33.3315 45.8715 32.6285 44.6217 31.3787C43.3719 30.1289 42.6688 28.4345 42.6667 26.667C42.6732 25.4796 43.0002 24.3159 43.6134 23.299C39.2634 24.2619 35.2234 26.2979 31.8616 29.2215C28.4997 32.1451 25.9227 35.8634 24.3654 40.0377C24.2427 40.031 24.1254 40.0003 24.0001 40.0003C22.3212 39.9966 20.7031 40.6277 19.4701 41.767C18.2371 42.9064 17.4803 44.4697 17.3516 46.1436C17.2229 47.8174 17.7318 49.4781 18.7761 50.7925C19.8204 52.107 21.3231 52.978 22.9827 53.231C23.9097 59.5577 27.082 65.3398 31.9201 69.5207C36.7582 73.7016 42.9391 76.0022 49.3334 76.0022C55.7277 76.0022 61.9085 73.7016 66.7466 69.5207C71.5847 65.3398 74.7571 59.5577 75.6841 53.231C77.3437 52.978 78.8463 52.107 79.8907 50.7925C80.935 49.4781 81.4439 47.8174 81.3151 46.1436C81.1864 44.4697 80.4297 42.9064 79.1967 41.767C77.9637 40.6277 76.3455 39.9966 74.6667 40.0003ZM36.2787 46.571C36.1516 46.9011 35.8985 47.1672 35.5752 47.3107C35.2519 47.4542 34.8848 47.4635 34.5547 47.3363C34.2246 47.2092 33.9585 46.9561 33.815 46.6328C33.6715 46.3095 33.6623 45.9424 33.7894 45.6123C34.1732 44.6001 34.7993 43.6973 35.6127 42.9829C36.4261 42.2685 37.4022 41.7643 38.4555 41.5143C39.5089 41.2644 40.6074 41.2763 41.6551 41.5491C42.7028 41.8218 43.6677 42.3471 44.4654 43.079C44.6008 43.195 44.7115 43.3371 44.791 43.4966C44.8705 43.6562 44.9172 43.8302 44.9283 44.0081C44.9394 44.1861 44.9148 44.3644 44.8557 44.5327C44.7967 44.7009 44.7045 44.8556 44.5847 44.9876C44.4648 45.1196 44.3197 45.2262 44.1579 45.3012C43.9961 45.3761 43.8209 45.4178 43.6427 45.4238C43.4645 45.4299 43.2869 45.4001 43.1204 45.3363C42.9539 45.2725 42.8019 45.1759 42.6734 45.0523C42.1961 44.611 41.6176 44.2939 40.9888 44.129C40.36 43.9641 39.7002 43.9565 39.0678 44.1068C38.4354 44.2571 37.8497 44.5608 37.3623 44.991C36.875 45.4212 36.501 45.9648 36.2734 46.5737L36.2787 46.571ZM57.1867 58.8697C56.8327 60.6927 55.8555 62.3359 54.4226 63.5173C52.9898 64.6987 51.1905 65.3448 49.3334 65.3448C47.4763 65.3448 45.677 64.6987 44.2441 63.5173C42.8112 62.3359 41.834 60.6927 41.4801 58.8697C41.4492 58.6792 41.4602 58.4844 41.5125 58.2987C41.5648 58.113 41.6571 57.941 41.7828 57.7947C41.9085 57.6483 42.0647 57.5313 42.2404 57.4517C42.4162 57.372 42.6071 57.3318 42.8001 57.3337H55.8667C56.0596 57.3318 56.2506 57.372 56.4263 57.4517C56.602 57.5313 56.7582 57.6483 56.884 57.7947C57.0097 57.941 57.1019 58.113 57.1542 58.2987C57.2065 58.4844 57.2176 58.6792 57.1867 58.8697ZM64.1121 47.3337C63.9486 47.3967 63.7743 47.4268 63.5992 47.4225C63.4241 47.4181 63.2516 47.3793 63.0915 47.3082C62.9314 47.2371 62.7868 47.1352 62.6661 47.0083C62.5454 46.8813 62.451 46.7318 62.3881 46.5683C62.1594 45.9618 61.7854 45.4206 61.2989 44.9923C60.8124 44.564 60.2282 44.2616 59.5976 44.1117C58.9669 43.9618 58.3092 43.9689 57.6819 44.1324C57.0547 44.296 56.4772 44.6109 56 45.0497C55.7366 45.2755 55.3954 45.3898 55.0491 45.3681C54.7027 45.3465 54.3785 45.1907 54.1452 44.9338C53.9119 44.6768 53.7879 44.3391 53.7997 43.9923C53.8114 43.6455 53.9579 43.3169 54.208 43.0763C55.0058 42.3444 55.9707 41.8192 57.0183 41.5464C58.066 41.2736 59.1646 41.2617 60.2179 41.5117C61.2712 41.7616 62.2473 42.2658 63.0607 42.9802C63.8742 43.6946 64.5002 44.5974 64.8841 45.6097C64.9469 45.7735 64.9767 45.9482 64.9719 46.1236C64.9671 46.299 64.9277 46.4718 64.856 46.6319C64.7843 46.7921 64.6816 46.9365 64.554 47.057C64.4263 47.1774 64.2761 47.2714 64.1121 47.3337Z" fill="#27443F"/>
</g>
<defs>
<clipPath id="clip0_2334_135">
<rect width="64" height="64" fill="white" transform="translate(17.332 17.3335)"/>
</clipPath>
</defs>
</svg>
