<svg width="99" height="99" viewBox="0 0 99 99" fill="none" xmlns="http://www.w3.org/2000/svg">
<rect x="2" y="2" width="94.6667" height="94.6667" rx="47.3333" stroke="#27443F" stroke-width="4"/>
<path d="M76.0455 58.007C74.2605 53.2642 73.3401 48.2399 73.3282 43.1723C73.2028 29.663 62.4388 18.667 49.3281 18.667C42.963 18.667 36.8585 21.1956 32.3576 25.6964C27.8567 30.1973 25.3281 36.3018 25.3281 42.667C25.3767 47.9042 24.4554 53.1051 22.6108 58.007C20.7361 63.539 19.2548 67.9097 24.4961 77.951C24.6284 78.2041 24.8383 78.4081 25.0952 78.5329C25.352 78.6577 25.6421 78.6968 25.9228 78.6443L35.8815 76.7897C37.4118 76.5048 38.7941 75.6935 39.7889 74.4963C40.7837 73.2991 41.3283 71.7916 41.3281 70.235V65.7337C43.7328 67.2173 46.5027 68.0029 49.3281 68.0029C52.1536 68.0029 54.9235 67.2173 57.3281 65.7337V70.2377C57.328 71.794 57.8723 73.3014 58.8668 74.4986C59.8614 75.6957 61.2435 76.5072 62.7735 76.7923L72.7335 78.647C72.814 78.6617 72.8956 78.6693 72.9775 78.6697C73.2212 78.6698 73.4604 78.6032 73.6689 78.4769C73.8774 78.3507 74.0473 78.1697 74.1602 77.9537C79.4015 67.9097 77.9202 63.539 76.0455 58.007ZM61.8615 46.5337L60.9641 47.879C59.9523 49.4025 59.493 51.2268 59.6628 53.0479C59.8326 54.8689 60.6213 56.5768 61.8975 57.887C58.6721 62.267 54.2721 65.3337 49.3281 65.3337C44.3015 65.3337 39.8375 62.167 36.6041 57.6697C37.5452 56.3603 38.0681 54.7969 38.104 53.1849C38.14 51.5728 37.6873 49.9876 36.8055 48.6377L33.3281 43.3337C37.9147 43.3345 42.3522 41.7046 45.8479 38.7353C49.3435 35.766 51.6697 31.6506 52.4108 27.1243L61.1268 36.7123C62.3272 38.0329 63.0515 39.7169 63.1846 41.4965C63.3178 43.2762 62.852 45.0492 61.8615 46.5337Z" fill="#27443F"/>
</svg>
