<svg width="99" height="99" viewBox="0 0 99 99" fill="none" xmlns="http://www.w3.org/2000/svg">
<rect x="2" y="2" width="94.6667" height="94.6667" rx="47.3333" stroke="#27443F" stroke-width="4"/>
<path d="M55.7587 70.6665H42.9107L40.0853 78.1972C40.0094 78.399 39.9836 78.6163 40.0101 78.8303C40.0366 79.0443 40.1146 79.2487 40.2375 79.426C40.3603 79.6033 40.5243 79.7481 40.7154 79.848C40.9065 79.948 41.119 80.0001 41.3347 79.9998H57.3347C57.5503 80.0001 57.7628 79.948 57.9539 79.848C58.145 79.7481 58.309 79.6033 58.4319 79.426C58.5547 79.2487 58.6327 79.0443 58.6592 78.8303C58.6857 78.6163 58.6599 78.399 58.584 78.1972L55.7587 70.6665Z" fill="#27443F"/>
<path d="M72.8088 45.7238C71.7044 44.6215 70.2078 44.0024 68.6475 44.0024C67.0871 44.0024 65.5905 44.6215 64.4861 45.7238C63.8811 46.3252 63.0626 46.6628 62.2095 46.6628C61.3563 46.6628 60.5378 46.3252 59.9328 45.7238C58.8282 44.6218 57.3317 44.003 55.7715 44.003C54.2112 44.003 52.7147 44.6218 51.6101 45.7238C51.006 46.3265 50.1875 46.6649 49.3341 46.6649C48.4808 46.6649 47.6623 46.3265 47.0581 45.7238C45.9536 44.6218 44.457 44.003 42.8968 44.003C41.3366 44.003 39.84 44.6218 38.7355 45.7238C38.1304 46.3252 37.3119 46.6628 36.4588 46.6628C35.6057 46.6628 34.7872 46.3252 34.1821 45.7238C33.0777 44.6215 31.5811 44.0024 30.0208 44.0024C28.4604 44.0024 26.9638 44.6215 25.8595 45.7238C25.6208 45.9624 25.4815 46.2826 25.4696 46.6198C25.4577 46.9571 25.5742 47.2863 25.7955 47.5411L43.5675 67.9998H48.0008V63.9998C48.0008 63.6462 48.1413 63.307 48.3913 63.057C48.6414 62.8069 48.9805 62.6665 49.3341 62.6665C49.6877 62.6665 50.0269 62.8069 50.2769 63.057C50.527 63.307 50.6675 63.6462 50.6675 63.9998V67.9998H55.1008L72.8728 47.5411C73.0941 47.2863 73.2105 46.9571 73.1987 46.6198C73.1868 46.2826 73.0475 45.9624 72.8088 45.7238Z" fill="#27443F"/>
<path d="M36.0467 27.592C34.3013 29.5352 33.335 32.0546 33.3333 34.6667C33.3333 35.0203 33.1929 35.3594 32.9428 35.6095C32.6928 35.8595 32.3536 36 32 36C31.6464 36 31.3072 35.8595 31.0572 35.6095C30.8072 35.3594 30.6667 35.0203 30.6667 34.6667C30.6643 31.5904 31.7309 28.6088 33.684 26.232C31.1444 24.7686 28.2645 23.9988 25.3333 24C24.9797 24 24.6406 24.1405 24.3905 24.3905C24.1405 24.6406 24 24.9797 24 25.3333V32C23.997 34.2313 24.6946 36.4073 25.9945 38.2209C27.2944 40.0345 29.131 41.3941 31.245 42.108C33.3591 42.8219 35.6439 42.8539 37.7772 42.1996C39.9104 41.5454 41.7844 40.2378 43.1347 38.4613C41.1258 37.4026 39.4204 35.8487 38.18 33.9466C36.9396 32.0445 36.2053 29.8572 36.0467 27.592Z" fill="#27443F"/>
<path d="M62.6192 27.592C64.3647 29.5352 65.3309 32.0546 65.3326 34.6667C65.3326 35.0203 65.4731 35.3594 65.7231 35.6095C65.9732 35.8595 66.3123 36 66.6659 36C67.0195 36 67.3587 35.8595 67.6087 35.6095C67.8588 35.3594 67.9992 35.0203 67.9992 34.6667C68.0016 31.5904 66.935 28.6088 64.9819 26.232C67.5216 24.7686 70.4015 23.9988 73.3326 24C73.6862 24 74.0253 24.1405 74.2754 24.3905C74.5254 24.6406 74.6659 24.9797 74.6659 25.3333V32C74.669 34.2313 73.9713 36.4073 72.6714 38.2209C71.3715 40.0345 69.535 41.3941 67.4209 42.108C65.3068 42.8219 63.022 42.8539 60.8887 42.1996C58.7555 41.5454 56.8815 40.2378 55.5312 38.4613C57.5401 37.4026 59.2455 35.8487 60.4859 33.9466C61.7263 32.0445 62.4606 29.8572 62.6192 27.592Z" fill="#27443F"/>
<path d="M58.668 18.6665C55.7368 18.6653 52.857 19.4351 50.3173 20.8985C52.2704 23.2753 53.337 26.2569 53.3346 29.3332C53.3346 29.6868 53.1942 30.0259 52.9441 30.276C52.6941 30.526 52.3549 30.6665 52.0013 30.6665C51.6477 30.6665 51.3085 30.526 51.0585 30.276C50.8084 30.0259 50.668 29.6868 50.668 29.3332C50.6664 26.6773 49.6698 24.1185 47.8746 22.1612C47.728 22.0012 47.5813 21.8412 47.4253 21.6905C47.316 21.5838 47.2013 21.4838 47.0866 21.3825C46.932 21.2492 46.776 21.1078 46.6133 20.9825C46.4906 20.8852 46.3626 20.7932 46.236 20.6998C46.0706 20.5798 45.9017 20.4643 45.7293 20.3532C45.596 20.2692 45.4626 20.1865 45.3293 20.1078C45.1493 20.0038 44.968 19.9065 44.7826 19.8132C44.6413 19.7425 44.5013 19.6798 44.3573 19.6092C44.1653 19.5225 43.968 19.4452 43.7693 19.3692C43.6253 19.3145 43.4813 19.2585 43.3333 19.2092C43.1226 19.1398 42.908 19.0825 42.692 19.0265C42.5493 18.9892 42.408 18.9478 42.2626 18.9158C42.0213 18.8638 41.7733 18.8278 41.5253 18.7918C41.4 18.7732 41.2773 18.7478 41.152 18.7345C40.7699 18.6915 40.3858 18.6688 40.0013 18.6665C39.6477 18.6665 39.3085 18.807 39.0585 19.057C38.8084 19.3071 38.668 19.6462 38.668 19.9998V26.6665C38.6723 29.2625 39.6222 31.768 41.34 33.7143C43.0579 35.6606 45.426 36.9144 48.0013 37.2412V42.6665C48.0013 43.0201 48.1418 43.3593 48.3918 43.6093C48.6419 43.8594 48.981 43.9998 49.3346 43.9998C49.6883 43.9998 50.0274 43.8594 50.2774 43.6093C50.5275 43.3593 50.668 43.0201 50.668 42.6665V37.2412C53.2433 36.9144 55.6114 35.6606 57.3292 33.7143C59.0471 31.768 59.997 29.2625 60.0013 26.6665V19.9998C60.0013 19.6462 59.8608 19.3071 59.6108 19.057C59.3607 18.807 59.0216 18.6665 58.668 18.6665Z" fill="#27443F"/>
</svg>
