<?xml version="1.0" encoding="UTF-8"?>
<svg id="Livello_1" data-name="Livello 1" xmlns="http://www.w3.org/2000/svg" viewBox="0 0 2736.72 294.24" fill="#27443F">
  <path d="M1314.53.52c-4.1.7-9,3.2-21.9,11-9.1,5.6-19.6,11.7-23.4,13.6-16.4,8.5-23.8,24.8-23.8,52.5s8.2,58.5,24.1,90.3c11.7,23.3,29.1,46.7,44,59.4,7.3,6.1,7.8,6.8,9.3,12.8,2,8.1,7.1,18.4,11,22.2,1.7,1.6,6.5,4.8,10.6,7.2,4.1,2.3,15.1,8.7,24.3,14.1l16.8,10,8.3.5c9.6.6,16.5-1,26.7-6.3,37.2-19.5,75.9-83.7,84.4-139.9.8-5.5,1.5-15.5,1.5-22.3,0-27.7-7.4-44-23.8-52.5-3.8-1.9-14.3-8-23.3-13.5-13.9-8.5-17.5-10.3-22.7-11.1-10.6-1.7-23,1.4-34.6,8.6l-5,3.1-2.9-4.6c-1.6-2.5-5.6-8.1-8.9-12.4-23.5-31-48.9-46.3-70.7-42.7ZM1336.83,13.22c9.3,4.4,14.9,8.4,24.4,17.6,9.1,8.8,15.1,16,23.1,27.5l5.1,7.4-8.3,8.6c-4.5,4.7-10.2,11.2-12.6,14.3-2.4,3.2-4.5,5.8-4.6,5.8-.2,0-2.5-3.7-5.1-8.3-14.4-24.4-34.7-46.1-52.9-56.2-3.6-2-6.5-4-6.5-4.4,0-1.1,6-9.3,7.9-10.9,7.4-6.1,18.3-6.7,29.5-1.4ZM1286.53,34.42c-1.1,4.3-1.2,30.1-.1,38.7,6.9,56.1,47.1,124.1,84.7,143.6,3.5,1.7,6.3,3.5,6.3,3.8,0,2.2-7.4,10.8-11.6,13.4-29,17.9-86-44.4-104.9-114.8-4.4-16.2-5.8-26.4-5.9-41.2-.1-24.1,5.6-38,17.9-43.7,5-2.3,14.2-2.2,13.6.2ZM1305.33,40.72c13.4,7.9,34.3,31.5,46.4,52.6l5.8,10-7,12.3c-6.9,12.1-15.1,30.1-18.6,40.7l-1.8,5.4-3.4-5.4c-5-7.8-15.5-29.8-19.7-41.2-4.4-11.7-8-24.9-10.3-37.2-1.7-9.5-2.4-33.9-1-38.8.9-3.3,1.4-3.2,9.6,1.6ZM1438.93,59.42c2.2,1,4.7,2.5,5.6,3.2,1.9,1.6,7.9,9.8,7.9,10.9,0,.4-2.9,2.4-6.5,4.4-19.5,10.9-39.9,33.3-55.7,61.2-8.8,15.6-13.9,27.4-20.2,46.6l-5.2,15.8-7.2-6.6c-8.5-7.9-20.2-21.7-20.2-23.8,0-2.9,7.2-22.1,12.5-33.4,16.7-35.3,40.6-64.1,62.5-75.3,10.3-5.3,19.6-6.4,26.5-3ZM1478.93,82.32c12.3,5.6,18,19.5,17.9,43.6-.1,26.5-7.1,52.8-22.4,84-21.3,43.3-53.3,74.5-77,74.9-5.6.1-7.2-.3-11.4-2.9s-11.6-11.2-11.6-13.4c0-.3,2.8-2.1,6.3-3.8,36.7-19,75.7-83.8,84.2-139.8,1.6-10.7,1.9-32.3.6-39.2-.5-2.3-.6-4.5-.3-4.8,1.2-1.2,10-.3,13.7,1.4ZM1456.13,87.12c1.4,4.9.7,29.3-1,38.8-3.9,21.2-10.1,39.3-20.9,61.3-6.8,14-9.3,17.6-6.4,9.4,2.7-7.6,3.9-20,3.3-33.6-.7-14.9-2.4-25.4-6.9-41l-3.2-10.9,10-9.6c8.4-8.1,20.9-17.1,23.6-17.1.4,0,1.1,1.2,1.5,2.7ZM1415.43,125.12c2.5,8.9,5.9,28.5,6.5,37.3,1.1,15.9-2.1,32.5-8,41-3.2,4.7-12.3,10.1-17.8,10.7-6.1.6-6.7-.1-5.5-7.2,1.1-6.5.4-32.2-1.1-39.4-.9-4.3-.6-5,5-15.9,6-11.6,17.7-30.2,19-30.2.5,0,1.3,1.7,1.9,3.7ZM1382.43,190.92c0,6.4-1.5,18.4-2.4,19.2-.3.3-1.7-.2-3.2-1.2-3.1-2-3-4,1.2-17.8,3-9.8,4.4-9.8,4.4-.2ZM1416.33,217.62c-4.9,7.1-15.3,19-22.1,25.3-7,6.4-21.4,16.3-22.4,15.2-.3-.3-.9-3.5-1.5-7.2-.8-6-.7-6.9.8-8.1,1-.7,10.1-6.1,20.3-12,10.2-5.8,20.3-11.9,22.5-13.5,2.2-1.5,4.1-2.8,4.3-2.8.2-.1-.7,1.4-1.9,3.1ZM1342.73,244.52c3.3,1.1,8.5,1.9,11.6,1.9h5.8l1,7.2c.7,5.2.7,7.5-.1,8-2.2,1.5-7.3.7-12.4-1.8-7.8-3.9-12.4-9-14.7-16.3-.6-2.1-.5-2.3,1.1-1.6,1.1.4,4.5,1.6,7.7,2.6Z"/>
  <path d="M685.83,68.42c-58.9,5.7-102.2,40.2-102.4,81.7-.1,32.7,26.6,69.2,62,84.4,21.4,9.2,49,12.3,67,7.4,20.1-5.4,34.7-20.6,35.8-37.3.6-8.4-1.6-13.8-7.6-19.5-13.8-12.9-39.8-12.7-54.7.5-12.1,10.6-8.7,25.8,5.7,25.8,2.4,0,5.3-.7,6.5-1.5,2.6-1.8,3.8-6.2,2.2-8.1-1.5-1.9-2.7-1.8-2.5.2.2,2.9-3,4.1-6.2,2.4-9.5-5.3,5-18,20.7-18s26.8,8.8,24.6,19.3c-2.4,11.3-14.5,21.6-29.7,25.2-12.2,2.9-32.6,1.3-47.8-3.7-33.2-10.8-59.4-39.4-63.9-69.9-2.5-16.6,3.3-32.4,17.2-46.4,13.4-13.4,29.5-22.1,51.3-27.6,38.1-9.6,78.4-4.5,118.9,15,31.1,15,49.9,29.1,99.5,74.6,71.9,66,127.8,97.8,189.8,108.2,8.2,1.4,16.4,1.8,35.2,1.8,25.7,0,31.5-.6,49-5.1,15.3-3.9,44.4-19.3,41.7-22-.4-.5-2.9,0-5.5,1-14.3,5.6-31.2,10.8-41.3,12.7-16.2,3.1-52.2,3.8-70.7,1.5-37.4-4.8-74.1-19.2-112.2-44.1-26.1-17-47.4-34-81.5-65.1-43.8-39.9-65.5-56.4-92.6-70.2-35.4-18.1-74.5-26.4-108.5-23.2Z"/>
  <path d="M2024.93,68.02c-40.6,3.9-72.2,15.1-106.5,37.8-20.7,13.7-33.9,24.5-68.5,56-34.1,31.1-55.4,48.1-81.5,65.1-38.1,24.9-74.8,39.3-112.2,44.1-18.5,2.3-54.5,1.6-70.7-1.5-10.1-1.9-27-7.1-41.3-12.7-2.6-1-5.1-1.5-5.5-1-2.7,2.7,26.4,18.1,41.7,22,17.5,4.5,23.3,5.1,49,5.1,18.8,0,27-.4,35.2-1.8,62-10.4,117.9-42.2,189.8-108.2,49.6-45.5,68.4-59.6,99.5-74.6,40.5-19.5,80.8-24.6,118.9-15,45.2,11.5,73.4,41.8,68.5,74-4.5,30.5-30.7,59.1-63.9,69.9-15.2,5-35.6,6.6-47.8,3.7-15.2-3.6-27.3-13.9-29.7-25.2-2.2-10.5,9.1-19.3,24.6-19.3s30.2,12.7,20.7,18c-3.2,1.7-6.4.5-6.2-2.4.2-2-1-2.1-2.5-.2-1.6,1.9-.4,6.3,2.2,8.1,1.2.8,4.1,1.5,6.5,1.5,14.4,0,17.8-15.2,5.7-25.8-14.9-13.2-40.9-13.4-54.7-.5-6,5.7-8.2,11.1-7.6,19.5,1.1,16.7,15.7,31.9,35.8,37.3,18,4.9,45.6,1.8,67-7.4,35.4-15.2,62.1-51.7,62-84.4-.1-37.6-37.1-71-88.1-79.6-11.3-1.9-32.7-3.2-40.4-2.5Z"/>
  <path d="M52.03,100.52c-17.6,4.3-34,17.3-42.3,33.4-12.7,24.8-13,53.5-.7,79.5,8.7,18.4,21.3,31.5,37.9,39.5,14.2,6.8,20.1,8,40.5,8,20.2-.1,28.5-1.4,48-7.7,29.1-9.4,52.8-21.8,108-56.5,33.8-21.2,42-25.9,62.1-35.8,46.3-22.8,85-30.1,108.4-20.4l3,1.2-3,.8c-1.6.4-6.4,1.4-10.4,2.3-16.1,3.6-28,12.5-34.9,26.4-3.4,7-3.7,8.3-4,18.1-.4,9.4-.1,11.5,2.3,18.6,6.8,20.3,22.1,35.4,43.7,43.3,6.5,2.4,8.7,2.7,20.3,2.7,12.9,0,13.1,0,20.5-3.6,16.5-7.8,25-22.2,25-41.9,0-14.2-5.1-29.5-14.3-42.9l-3-4.4,2.9.7c4.5,1.1,26.5,11.9,37.3,18.3,28.8,17.2,69.6,47.3,111.9,82.5,15.1,12.6,19.6,15.4,17.1,10.5-2.2-4-35.1-36.2-47.6-46.5-6.8-5.6-18.5-14.8-26-20.5-42.1-31.6-69.7-47.7-98.2-57.1-9.2-3-14.8-5.6-20.6-9.4-16.2-10.7-31.9-14.8-53.5-13.9-21.1.8-43.4,7.2-74,21.1-18.5,8.4-36.2,18.5-71.8,40.8-37.7,23.5-49,30.2-66.6,39-34.4,17.2-67.1,26.1-89.6,24.4-27-2.1-44.6-11.9-58.7-32.6-10.3-15.2-14.8-33.4-13.2-52.9,2.5-29.1,19.9-52,44.5-58.6,3.3-.9,9.8-1.7,14.9-1.7,23.3,0,37.7,14,33.7,32.8-1.7,8.3-5,14.5-8.4,15.8-3.9,1.4-3.5,2.6.9,2.6,3,0,4.4-.8,7.9-4.5,7.7-8,9.6-22.3,4.3-33.3-7.9-16.2-30.9-23.9-54.3-18.1ZM439.83,155.72c3.4,2.2,12.2,13,16.5,20.1,6.6,11,8.5,17.8,8.5,30.6.1,11-.1,11.8-3.1,17.6-3.9,7.5-10.6,13.6-18.2,16.5-19.2,7.6-47.7-3.2-61-23.2-17.3-25.9-5.5-55.5,25-62.4,9-2,28.7-1.5,32.3.8Z"/>
  <path d="M2656.73,99.82c-7.4,1.8-16,6.3-20.3,10.6-11.2,11.2-12,30.8-1.6,41.5,3.5,3.7,4.9,4.5,7.9,4.5,4.4,0,4.8-1.2.9-2.6-1.9-.7-3.6-2.6-5.1-5.6-11.3-23.4,2.5-43,30.4-43,15,.1,26.9,4.5,37.8,14.3,25.6,22.8,29.4,67.9,8.4,98.9-14.1,20.7-31.7,30.5-58.7,32.6-22.5,1.7-55.2-7.2-89.6-24.4-17.6-8.8-28.9-15.5-66.6-39-35.6-22.3-53.3-32.4-71.8-40.8-57.2-26.1-95.5-28.2-127.5-7.2-5.8,3.8-11.4,6.4-20.6,9.4-28.5,9.4-56.1,25.5-98.2,57.1-7.5,5.7-19.2,14.9-26,20.5-12.5,10.3-45.4,42.5-47.6,46.5-2.5,4.9,2,2.1,17.1-10.5,42.3-35.2,83.1-65.3,111.9-82.5,10.8-6.4,32.8-17.2,37.3-18.3l2.9-.7-3,4.4c-9.2,13.4-14.3,28.7-14.3,42.9,0,19.7,8.5,34.1,25,41.9,7.4,3.6,7.6,3.6,20.5,3.6,11.6,0,13.8-.3,20.3-2.7,21.6-7.9,36.9-23,43.7-43.3,2.4-7.1,2.7-9.2,2.3-18.6-.3-9.8-.6-11.1-4-18.1-6.9-13.9-18.8-22.8-34.9-26.4-4-.9-8.7-1.9-10.4-2.3l-3-.8,3-1.2c23.4-9.7,62.1-2.4,108.4,20.4,20.1,9.9,28.3,14.6,62.1,35.8,55.2,34.7,78.9,47.1,108,56.5,19.5,6.3,27.8,7.6,48,7.7,20.4,0,26.3-1.2,40.5-8,30.8-14.8,49.8-50.6,46.4-87.2-1.1-12.2-3.7-21-9.2-31.8-5.4-10.5-17.2-22.5-27.3-27.8-13.1-6.8-30.5-9.3-43.1-6.3ZM2328.93,154.92c25.1,5.3,38.6,26.4,31.6,49.2-6.6,21.9-29.9,38.8-53.1,38.7-34.3-.2-47.2-35.9-25.1-69.6,6.9-10.5,13.9-17.8,18.1-18.8,5.8-1.3,21-1.1,28.5.5Z"/>
  <path d="M476.33,135.92c-6.3,3.5-5.4,13.2,1.4,15.4,4.1,1.4,7.8.3,10.1-3.1,5.1-7.2-3.7-16.7-11.5-12.3Z"/>
  <path d="M2253.83,136.42c-7.1,2.9-6.9,13.3.3,16.1,9.7,3.7,16.4-10.9,7.2-15.6-3.1-1.7-4.4-1.8-7.5-.5Z"/>
  <path d="M502.33,144.92c-6.3,3.5-5.4,13.2,1.4,15.4,4.1,1.4,7.8.3,10.1-3.1,5.1-7.2-3.7-16.7-11.5-12.3Z"/>
  <path d="M2227.83,145.42c-7.1,2.9-6.9,13.3.3,16.1,9.7,3.7,16.4-10.9,7.2-15.6-3.1-1.7-4.4-1.8-7.5-.5Z"/>
  <path d="M526.33,158.92c-6.3,3.5-5.4,13.2,1.4,15.4,4.1,1.4,7.8.3,10.1-3.1,5.1-7.2-3.7-16.7-11.5-12.3Z"/>
  <path d="M2203.83,159.42c-7.1,2.9-6.9,13.3.3,16.1,9.7,3.7,16.4-10.9,7.2-15.6-3.1-1.7-4.4-1.8-7.5-.5Z"/>
</svg>