<?xml version="1.0" encoding="UTF-8"?>
<svg id="Livello_1" data-name="Livello 1" xmlns="http://www.w3.org/2000/svg" viewBox="0 0 1233.01 200.51" fill="#27443F">
  <path d="M325.51,1.11c-25.6,2.1-53.9,7.3-76,14-21.4,6.4-43.9,15.8-80.5,33.6-69.4,33.8-88.7,41-112.5,42-22.4,1-36.8-5.4-43.6-19.4-3.9-7.9-4.5-19-1.5-25.9,4.8-10.9,10.9-16.6,21-20,4.5-1.4,6.1-1.5,10.4-.5,2.7.6,5.2.9,5.4.7,1.5-1.4-1.4-5-5.5-6.8-9.2-4.1-21.8-.2-31.1,9.7C-1.09,41.91-3.49,59.51,5.01,76.71c10.4,21.1,37.5,29,71.1,20.8,20.5-4.9,36.2-11.6,88.3-37.2,39.5-19.4,52.8-25.3,71.7-32.1,62.6-22.4,139.2-26.2,215.9-10.7,32.5,6.5,58.1,15.3,88.1,30,25.7,12.7,44.7,25.5,64.8,43.7l5.9,5.4-6,7.5c-12.6,15.4-21.5,31.2-24.8,43.9-2.5,9.7-1.8,23.7,1.7,31.2,3.3,7.2,10.4,14,18.8,18.1,5.9,2.9,7.3,3.2,16,3.2s10.1-.3,16-3.2c8.4-4.1,15.5-10.9,18.8-18.1,3.5-7.5,4.2-21.5,1.7-31.2-3.3-12.7-12.2-28.5-24.8-43.9l-6-7.5,5.9-5.4c20.1-18.2,39.1-31,64.8-43.7,30-14.7,55.6-23.5,88.1-30,65.4-13.2,130.9-12.4,188,2.2,28.3,7.2,47.7,15.1,99.6,40.6,52.1,25.6,67.8,32.3,88.3,37.2,33.6,8.2,60.7.3,71.1-20.8,8.5-17.2,6.1-34.8-6.6-48.2-9.3-9.9-21.9-13.8-31.1-9.7-4.1,1.8-7,5.4-5.5,6.8.2.2,2.7-.1,5.4-.7,4.3-1,5.9-.9,10.4.5,10.1,3.4,16.2,9.1,21,20,3,6.9,2.4,18-1.5,25.9-6.8,14-21.2,20.4-43.6,19.4-23.8-1-43.1-8.2-112.5-42-58.7-28.5-87.7-38.4-131-44.6-68.1-9.8-147.6-1.8-209.4,20.9-39.5,14.5-71.3,33.2-99.3,58.3l-7.8,7-7.7-7c-23-20.6-46.7-35.7-77.1-49.2C491.61,16.21,446.91,5.51,394.01,1.01c-14-1.1-53.4-1.1-68.5.1ZM625.01,113.71c9.4,12.2,18,29,20.1,39.3,3.3,16.4-2.9,30.5-16.5,37.2-3.5,1.8-6.3,2.3-12.1,2.3-15.4,0-26.2-9.5-29-25.6-1.6-9.4.5-18.5,7.5-32.4,5.1-10.3,19.4-30.5,21.5-30.5.5,0,4.3,4.4,8.5,9.7Z"/>
</svg>